<?xml version="1.0" standalone="no"?>
<!DOCTYPE svg PUBLIC "-//W3C//DTD SVG 20010904//EN"
 "http://www.w3.org/TR/2001/REC-SVG-20010904/DTD/svg10.dtd">
<svg version="1.0" xmlns="http://www.w3.org/2000/svg"
 width="1164.000000pt" height="1164.000000pt" viewBox="0 0 1164.000000 1164.000000"
 preserveAspectRatio="xMidYMid meet">
<metadata>
Created by potrace 1.11, written by Peter Selinger 2001-2013
</metadata>
<g transform="translate(0.000000,1164.000000) scale(0.100000,-0.100000)"
fill="#000000" stroke="none">
<path d="M2597 11624 c-3 -3 -25 -7 -49 -9 -90 -7 -219 -81 -268 -154 -52 -76
-72 -140 -77 -245 -3 -56 -5 -107 -4 -113 0 -11 1 -103 0 -160 0 -42 0 -469 0
-480 0 -13 1 -126 0 -160 0 -42 0 -469 0 -480 0 -13 1 -126 0 -160 0 -10 0
-119 0 -243 0 -124 0 -231 0 -237 0 -30 0 -465 0 -480 0 -16 0 -441 0 -483 0
-42 0 -1427 0 -1440 0 -13 0 -435 0 -480 0 -42 0 -1427 0 -1440 0 -13 0 -444
0 -477 0 -30 0 -465 0 -480 0 -10 0 -119 0 -243 0 -124 0 -231 0 -237 0 -13 1
-126 0 -160 0 -42 0 -469 0 -480 0 -13 1 -126 0 -160 0 -42 0 -469 0 -480 0
-13 1 -126 0 -160 0 -10 0 -119 0 -243 0 -124 0 -231 0 -237 0 -30 0 -465 0
-480 0 -13 0 -402 0 -478 -1 -219 7 -280 47 -360 29 -58 113 -143 166 -168 34
-16 237 -17 3410 -17 3031 0 3376 2 3403 16 46 24 114 78 115 91 0 6 4 13 8
15 13 5 48 61 67 108 16 40 20 75 25 225 0 17 0 78 -1 138 -1 59 0 109 2 112
3 2 2 31 -1 65 -3 33 -3 66 1 71 4 6 4 23 0 37 -4 14 -4 47 -1 74 4 26 2 48
-2 48 -5 0 -7 4 -4 8 5 9 7 68 5 222 0 58 0 110 1 115 1 6 1 33 1 60 -1 28 -1
79 -1 115 1 36 1 72 1 80 -1 8 -1 62 0 120 0 58 0 112 -1 120 0 8 0 31 1 50 1
19 1 42 0 50 0 8 0 40 0 70 1 30 1 60 0 65 -1 18 -3 220 -1 230 1 6 1 37 0 70
0 33 0 80 1 105 0 25 1 52 0 60 0 8 0 49 0 90 0 41 0 82 0 90 0 8 -1 44 0 80
0 36 0 72 0 80 -1 8 -1 62 0 120 0 58 0 112 -1 120 0 8 0 31 1 50 1 19 1 42 0
50 0 8 0 40 0 70 1 30 1 60 0 65 -1 18 -3 220 -1 230 1 6 1 37 0 70 0 33 0 80
1 105 0 25 1 52 0 60 0 8 0 49 0 90 0 41 0 82 0 90 0 8 -1 44 0 80 0 36 0 72
0 80 -1 8 -1 62 0 120 0 58 0 112 -1 120 0 8 0 31 1 50 1 19 1 42 0 50 0 8 0
40 0 70 1 30 1 60 0 65 -1 18 -3 220 -1 230 1 6 1 37 0 70 0 33 0 80 1 105 0
25 1 52 0 60 0 8 0 49 0 90 0 41 0 82 0 90 0 8 -1 44 0 80 0 36 0 72 0 80 -1
8 -1 62 0 120 0 58 0 112 -1 120 0 8 0 31 1 50 1 19 1 42 0 50 0 8 0 40 0 70
1 30 1 60 0 65 -1 18 -3 220 -1 230 1 6 1 37 0 70 0 33 0 80 1 105 0 25 1 52
0 60 0 8 0 49 0 90 0 41 0 82 0 90 0 8 -1 44 0 80 0 36 0 72 0 80 -1 8 -1 62
0 120 0 58 0 112 -1 120 0 8 0 31 1 50 1 19 1 42 0 50 0 8 0 40 0 70 1 30 1
60 0 65 -1 18 -3 220 -1 230 1 6 1 37 0 70 0 33 0 80 1 105 0 25 1 52 0 60 0
8 0 49 0 90 0 41 0 82 0 90 0 8 -1 44 0 80 0 36 0 72 0 80 -1 8 -1 62 0 120 0
58 0 112 -1 120 0 8 0 31 1 50 1 19 1 42 0 50 0 8 0 40 0 70 1 30 1 60 0 65
-1 18 -3 220 -1 230 1 6 1 37 0 70 0 33 0 80 1 105 0 25 1 52 0 60 0 8 0 49 0
90 0 41 0 82 0 90 0 8 -1 44 0 80 0 36 0 72 0 80 -1 8 -1 62 0 120 0 58 0 112
-1 120 0 8 0 31 1 50 1 19 1 42 0 50 0 8 0 40 0 70 1 30 1 60 0 65 -1 18 -3
220 -1 230 1 6 1 37 0 70 0 33 0 80 1 105 0 25 1 52 0 60 0 8 0 49 0 90 0 41
0 82 0 90 0 8 -1 44 0 80 0 36 0 72 0 80 -1 8 -1 62 0 120 0 58 0 112 -1 120
0 8 0 31 1 50 1 19 1 41 0 48 -2 24 -2 38 -1 107 1 106 -7 297 -13 324 -9 35
-57 123 -77 143 -10 9 -20 21 -21 25 -2 4 -22 22 -44 38 -92 70 -189 93 -355
84 -17 -1 -211 0 -279 1 -25 1 -48 3 -52 6 -4 2 -10 0 -13 -4 -3 -5 -25 -6
-48 -2 -24 3 -53 4 -66 0 -12 -3 -67 -3 -122 0 -55 3 -110 3 -122 0 -12 -3
-44 -3 -71 0 -26 4 -50 4 -52 0 -2 -4 -24 -4 -47 0 -24 3 -53 4 -66 0 -12 -3
-67 -3 -122 0 -55 3 -110 3 -122 0 -12 -3 -44 -3 -71 0 -26 4 -50 4 -52 0 -2
-4 -24 -4 -47 0 -24 3 -53 4 -66 0 -12 -3 -67 -3 -122 0 -55 3 -110 3 -122 0
-12 -3 -44 -3 -71 0 -26 4 -50 4 -52 0 -2 -4 -24 -4 -47 0 -24 3 -53 4 -66 0
-12 -3 -67 -3 -122 0 -55 3 -110 3 -122 0 -12 -3 -44 -3 -71 0 -26 4 -50 4
-52 0 -2 -4 -24 -4 -47 0 -24 3 -53 4 -66 0 -12 -3 -67 -3 -122 0 -55 3 -110
3 -122 0 -12 -3 -44 -3 -71 0 -26 4 -50 4 -52 0 -2 -4 -24 -4 -47 0 -24 3 -53
4 -66 0 -12 -3 -67 -3 -122 0 -55 3 -110 3 -122 0 -12 -3 -44 -3 -71 0 -26 4
-50 4 -52 0 -2 -4 -24 -4 -47 0 -24 3 -53 4 -66 0 -12 -3 -67 -3 -122 0 -55 3
-110 3 -122 0 -12 -3 -44 -3 -71 0 -26 4 -50 4 -52 0 -2 -4 -24 -4 -47 0 -24
3 -53 4 -66 0 -12 -3 -67 -3 -122 0 -55 3 -110 3 -122 0 -12 -3 -44 -3 -71 0
-26 4 -50 4 -52 0 -2 -4 -24 -4 -47 0 -24 3 -53 4 -66 0 -12 -3 -67 -3 -122 0
-55 3 -110 3 -122 0 -12 -3 -44 -3 -71 0 -26 4 -50 4 -52 0 -2 -4 -24 -4 -47
0 -24 3 -53 4 -66 0 -12 -3 -67 -3 -122 0 -55 3 -110 3 -122 0 -12 -3 -44 -3
-71 0 -26 4 -50 4 -52 0 -2 -4 -24 -4 -47 0 -24 3 -53 4 -66 0 -12 -3 -67 -3
-122 0 -55 3 -110 3 -122 0 -12 -3 -44 -3 -71 0 -26 4 -50 4 -52 0 -2 -4 -24
-4 -47 0 -24 3 -53 4 -66 0 -12 -3 -67 -3 -122 0 -55 3 -110 3 -122 0 -12 -3
-44 -3 -71 0 -26 4 -50 4 -52 0 -2 -4 -24 -4 -47 0 -24 3 -54 3 -68 0 -14 -4
-33 -3 -42 2 -10 5 -19 4 -23 -2 -4 -7 -12 -7 -24 0 -10 5 -21 7 -24 4z"/>
</g>
</svg>
