<svg xmlns="http://www.w3.org/2000/svg" xmlns:xlink="http://www.w3.org/1999/xlink" viewBox="59 60 183.30531 290.58313">
  <defs>
    <style>
      .cls-1, .cls-6 {
        fill: none;
      }

      .cls-2 {
        fill: #4e341d;
      }

      .cls-3 {
        clip-path: url(#clip-path);
      }

      .cls-4 {
        fill: #c5bdb3;
      }

      .cls-5 {
        fill: #eddbd6;
      }

      .cls-6 {
        stroke: #fcd897;
        stroke-miterlimit: 10;
        stroke-width: 2px;
      }

      .cls-7 {
        fill: #765b3b;
      }
    </style>
    <clipPath id="clip-path">
      <circle class="cls-1" cx="130.02349" cy="234.63974" r="62"/>
    </clipPath>
  </defs>
  <title>color_surprised_tall copy</title>
  <g id="Layer_3" data-name="Layer 3">
    <rect class="cls-2" x="60.261" y="60.261" width="180.78331" height="291.06113" rx="9.93852" ry="9.93852"/>
    <g class="cls-3">
      <rect class="cls-4" x="63.4406" y="168.05686" width="133.16578" height="133.16578"/>
      <polygon class="cls-5" points="208.45 198.742 73.004 276.629 45.208 221.652 189.678 161.613 208.45 198.742"/>
    </g>
    <circle class="cls-6" cx="130.02349" cy="234.63974" r="62"/>
    <path class="cls-7" d="M143.73569,124.2147a108.5808,108.5808,0,0,1,68.55816,48.425A92.6293,92.6293,0,0,0,154.1787,90.37206a17.71814,17.71814,0,0,0-24.16926,16.15885v0A17.6688,17.6688,0,0,0,143.73569,124.2147Z"/>
    <circle class="cls-6" cx="186.20387" cy="273.31615" r="6.2"/>
    <line class="cls-6" x1="186.20387" y1="279.51615" x2="186.20387" y2="351.32213"/>
  </g>
</svg>